<?xml version="1.0" standalone="no"?>
<svg width="64" height="64" viewBox="0 0 384 384" version="1.1" xmlns="http://www.w3.org/2000/svg">
  <path d="M352 192c0 -21 14 -39 32 -46c-5 -20 -13 -40 -24 -57c-6 3 -13 4 -20 4c-13 0 -25 -4 -35 -14c-15 -15 -18 -37 -10 -55c-17 -11 -37 -19 -57 -24c-7 18 -25 32 -46 32s-39 -14 -46 -32c-20 5 -40 13 -57 24c8 18 5 40 -10 55c-10 10 -22 14 -35 14c-7 0 -14 -1 -20 -4 c-11 17 -19 37 -24 57c18 7 32 25 32 46s-13 39 -32 46c5 20 13 40 24 57c6 -3 13 -4 20 -4c13 0 25 4 35 14c15 15 18 37 10 55c17 11 37 19 57 24c7 -19 25 -32 46 -32s39 13 46 32c20 -5 40 -13 57 -24c-8 -18 -5 -40 10 -55c10 -10 22 -14 35 -14c7 0 14 1 20 4 c11 -17 19 -37 24 -57c-19 -7 -32 -25 -32 -46zM193 112c44 0 80 36 80 80s-36 80 -80 80s-80 -36 -80 -80s36 -80 80 -80z" transform="matrix(1,0,0,-1,0,384)"/>
</svg>