<?xml version="1.0" standalone="no"?>
<svg width="64" height="64" viewBox="0 0 416 384" version="1.1" xmlns="http://www.w3.org/2000/svg">
  <path d="M382 301c18 0 34 -14 34 -33v-202c0 -19 -16 -34 -34 -34h-348c-19 0 -34 15 -34 34v202c0 19 15 33 34 33h69l39 40v0c6 7 15 11 25 11h84c9 0 17 -4 23 -10v0v0v0l41 -41h67zM208 82c51 0 92 42 92 93s-41 93 -92 93s-92 -42 -92 -93s41 -93 92 -93zM376 248 c8 0 14 6 14 14s-6 14 -14 14s-14 -6 -14 -14s6 -14 14 -14zM208 245c38 0 70 -31 70 -70s-32 -70 -70 -70c-39 0 -70 31 -70 70s31 70 70 70z" transform="matrix(1,0,0,-1,0,384)"/>
</svg>