<?xml version="1.0" standalone="no"?>
<svg width="64" height="64" viewBox="0 0 512 384" version="1.1" xmlns="http://www.w3.org/2000/svg">
  <path d="M425 352c13 0 23 -10 23 -23v-304c0 -14 -10 -25 -23 -25h-400c-13 0 -25 12 -25 25v336c0 13 11 23 25 23h112c8 0 12 -2 17 -7v0l23 -23c2 -2 3 -2 6 -2h242zM25 368c-4 0 -9 -3 -9 -7v-74c3 1 5 1 8 1h400c3 0 5 0 8 -1v42c0 4 -3 7 -7 7h-242c-7 0 -12 2 -17 7 l-23 23c-2 2 -3 2 -6 2h-112zM432 25v239c0 4 -4 8 -8 8h-400c-4 0 -8 -4 -8 -8v-239c0 -4 5 -9 9 -9h400c4 0 7 5 7 9z" transform="matrix(1,0,0,-1,0,384)"/>
</svg>