<?xml version="1.0" standalone="no"?>
<svg width="64" height="64" viewBox="0 0 320 384" version="1.1" xmlns="http://www.w3.org/2000/svg">
  <path d="M297 210c14 -24 23 -52 23 -82c0 -33 -10 -63 -26 -88v0v0c-29 -43 -78 -72 -134 -72c-17 0 -32 1 -46 7s-25 13 -33 25c-11 16 -17 28 -21 52c-6 -25 2 -48 9 -60c-43 26 -69 71 -69 125v4c5 78 65 109 90 151c8 14 13 30 10 48c11 -9 15 -25 15 -39 c0 -16 -3 -29 -3 -29c4 8 7 18 9 31c6 35 2 85 -37 132l-1 1s7 0 18 -3c95 -16 169 -91 184 -186c2 -12 3 -23 3 -35c0 -16 -2 -32 -5 -47c10 23 13 43 14 55v10z" transform="matrix(1,0,0,-1,0,384)"/>
</svg>