<?xml version="1.0" standalone="no"?>
<svg width="64" height="64" viewBox="0 0 384 384" version="1.1" xmlns="http://www.w3.org/2000/svg">
  <path d="M144 368c0 32 16 48 48 48s48 -16 48 -48s-16 -48 -48 -48s-48 16 -48 48zM360 304c7 0 12 -2 17 -7s7 -10 7 -17s-2 -12 -7 -17s-10 -7 -17 -7h-98c-8 -2 -15 -6 -18 -14c-4 -9 -3 -27 1 -52l4 -21v-1v0l30 -172c1 -7 0 -13 -4 -18s-8 -9 -15 -10s-13 0 -18 4 s-9 9 -10 16l-21 120v-1l-2 9c-1 5 -3 11 -6 16s-6 8 -10 8h-2c-8 0 -14 -11 -18 -33v1l-21 -120c-1 -7 -5 -12 -10 -16s-11 -5 -18 -4s-11 5 -15 10s-5 11 -4 18l30 172v0v1l4 21c4 25 5 43 1 52c-3 8 -10 12 -18 14h-98c-7 0 -12 2 -17 7s-7 10 -7 17s2 12 7 17s10 7 17 7 h336z" transform="matrix(1,0,0,-1,0,384)"/>
</svg>