<?xml version="1.0" encoding="utf-8"?>
<!-- Generator: Adobe Illustrator 16.0.0, SVG Export Plug-In . SVG Version: 6.00 Build 0)  -->
<!DOCTYPE svg PUBLIC "-//W3C//DTD SVG 1.1//EN" "http://www.w3.org/Graphics/SVG/1.1/DTD/svg11.dtd">
<svg version="1.1" id="图层_1" xmlns="http://www.w3.org/2000/svg" xmlns:xlink="http://www.w3.org/1999/xlink" x="0px" y="0px"
	 width="51.391px" height="45.082px" viewBox="0 0 51.391 45.082" enable-background="new 0 0 51.391 45.082" xml:space="preserve">
<path d="M18.021,15.018L18.021,15.018L18.021,15.018z M43.304,32.938c1.797,0.854,3.097,1.981,4.379,3.635
	c1.281,1.648,2.199,3.047,2.911,5.018c0.333,0.922,0.928,3.492,0.768,3.492c-0.002,0-26.18,0-26.18,0H0
	c0-2.494,1.17-5.098,2.457-7.162c2.229-3.58,5.312-5.656,9.519-6.088c1.497-0.15,3.082-0.273,4.533-0.688
	c1.06-0.306,2.568-0.756,3.022-1.359c0.451-0.604,0.483-1.506,0.483-1.506s-0.907-1.51-1.358-2.721
	c-0.453-1.209-1.396-2.529-1.396-2.529s-1.058,0-1.361-1.813c-0.301-1.965-0.904-2.567-0.904-4.08c0-1.36,0.757-1.512,0.757-1.512
	s-0.605-1.965-0.757-6.349C14.847,4.138,18.286,0,25.695,0C33.1,0,36.517,4.139,36.366,9.276c-0.151,4.382-0.759,6.349-0.759,6.349
	s0.759,0.15,0.759,1.512c0,1.512-0.452,2.268-0.906,4.23c-0.304,1.813-1.36,1.813-1.36,1.813s-0.604,1.479-1.059,2.688
	c-0.453,1.211-1.558,2.373-1.558,2.373s-0.104,0.939,0.35,1.545c0.452,0.604,1.964,1.057,3.021,1.357
	c2.207,0.631,4.538,0.715,6.766,1.217C42.227,32.496,42.785,32.691,43.304,32.938z M25.182,43.173c0,0,24.003-0.01,24.006-0.01
	c-0.172,0-0.912-2.332-2.154-4.026c-1.403-1.912-2.684-3.71-4.989-4.429c-1.747-0.543-3.574-0.651-5.369-0.949
	c-0.907-0.149-1.511-0.301-2.271-0.452c-0.451-0.148-3.179-0.5-4.387-2.015c-0.604-0.754-0.988-1.351-1.075-2.972
	c0.091-1.325,0.856-1.965,1.592-2.979c0.713-0.983,1.063-2.043,1.299-3.221c0.147-0.754,1.208-0.604,1.357-1.207
	c0.15-0.603,0.453-1.06,0.755-2.722c0.306-1.662-0.755-1.813-0.755-2.569c0-0.604,0.15-0.755,0.15-0.755
	c0-0.15,0.604-2.115,0.604-5.742c0-1.965-0.451-3.288-1.813-4.647c-1.663-1.664-3.568-2.061-6.439-2.061
	c-2.721,0-4.65,0.755-6.313,2.419c-1.359,1.359-1.965,2.324-1.965,4.288c0.149,3.627,0.604,5.593,0.604,5.743
	c0,0,0.15,0.453,0,0.906c-0.15,0.756-0.907,0.756-0.604,2.418c0.303,1.664,0.604,2.117,0.756,2.721
	c0.148,0.604,1.208,0.453,1.357,1.209c0.208,1.039,0.574,2.043,1.129,2.949c0.512,0.842,1.321,1.453,1.682,2.395
	c0.538,1.412-0.118,2.73-0.995,3.828c-1.21,1.512-3.877,1.615-4.33,1.766c-0.597,0.121-1.032,0.146-2.438,0.375
	c-2.411,0.4-3.125,0-7.197,2.031c-2.192,1.094-3.184,3.533-4.165,5.666c-0.306,0.662-0.565,1.338-0.854,2.006L25.182,43.173z"/>
</svg>
